<?xml version="1.0" encoding="utf-8"?>
<!-- Generator: Adobe Illustrator 15.0.0, SVG Export Plug-In . SVG Version: 6.00 Build 0)  -->
<!DOCTYPE svg PUBLIC "-//W3C//DTD SVG 1.1//EN" "http://www.w3.org/Graphics/SVG/1.1/DTD/svg11.dtd">
<svg version="1.1" id="Layer_1" xmlns="http://www.w3.org/2000/svg" xmlns:xlink="http://www.w3.org/1999/xlink" x="0px" y="0px"
	 width="435px" height="272px" viewBox="0 0 435 272" enable-background="new 0 0 435 272" xml:space="preserve">
<g>
	<defs>
		<rect id="SVGID_1_" width="435" height="272"/>
	</defs>
	<clipPath id="SVGID_2_">
		<use xlink:href="#SVGID_1_"  overflow="visible"/>
	</clipPath>
	<path clip-path="url(#SVGID_2_)" fill="none" stroke="#FFFFFF" stroke-width="0.718" d="M289.534,36.423
		c-1.231,1.23-5.577,4.897-3.717,9.977c1.525,4.167,5.783,4.012,9.294,2.374c3.512-1.638,3.801,1.716,4.396,3.244
		c1.054,2.691-0.936,8.541-0.936,8.541"/>
	<path clip-path="url(#SVGID_2_)" fill="none" stroke="#FFFFFF" stroke-width="0.718" d="M302.07,24.61
		c0,0,30.339,2.059,18.201,48.397c-6.502,24.827-3.631,32.73,2.985,42.951c6.56,10.142,21.257,19.247,21.257,19.247"/>
	<path clip-path="url(#SVGID_2_)" fill="none" stroke="#FFFFFF" stroke-width="0.718" d="M399.224,36.423
		c1.231,1.23,5.577,4.897,3.715,9.977c-1.523,4.167-5.783,4.012-9.293,2.374s-3.8,1.716-4.396,3.244
		c-1.053,2.691,0.936,8.541,0.936,8.541"/>
	<path clip-path="url(#SVGID_2_)" fill="none" stroke="#FFFFFF" stroke-width="0.718" d="M387.043,24.61
		c0,0-29.239,1.374-17.171,48.397c6.378,24.858,3.632,32.73-2.983,42.951c-6.563,10.142-22.264,19.159-22.264,19.159"/>
	<path clip-path="url(#SVGID_2_)" fill="none" stroke="#FFFFFF" stroke-width="0.718" d="M372.731,123.221
		c15.757-4.878,23.802-14.688,24.309-27.348c0.506-12.66-9.116-43.045-9.116-43.045c-3.122-11.343,5.888-18.247,11.648-16.206
		c-3.419-3.21-12.659-12.154-12.659-12.154s-8.105,2.027-20.767,3.545c-12.659,1.52-30.878,1.52-43.536,0
		c-12.661-1.518-20.764-3.545-20.764-3.545s-9.241,8.944-12.661,12.154c5.759-2.041,14.771,4.863,11.647,16.206
		c0,0-9.621,30.385-9.117,43.045c0.51,12.66,8.552,22.47,24.312,27.348c21.27,6.583,28.357,12.154,28.357,12.154
		S351.462,129.804,372.731,123.221z"/>
	<path clip-path="url(#SVGID_2_)" fill="#FFFFFF" d="M344.455,135.042c-1.689-1.072-14.94-9.65-21.077-19.135
		c-6.614-10.22-9.485-18.121-2.981-42.95c12.137-46.339-18.203-48.398-18.203-48.398l-0.225-0.139c0,0-9.241,8.942-12.66,12.153
		c5.76-2.042,14.771,4.863,11.648,16.207c0,0-9.622,30.383-9.116,43.043c0.505,12.663,8.55,22.47,24.309,27.348
		c19.244,5.959,26.88,11.085,28.159,12.006l0.103-0.109C344.411,135.067,344.426,135.059,344.455,135.042 M299.438,95.751
		c-1.335,0-2.418-1.083-2.418-2.421c0-1.963,2.418-3.856,2.418-5.856c0,1.963,2.419,3.963,2.419,5.856
		C301.856,94.668,300.773,95.751,299.438,95.751 M307.984,40.021c0,1.962,2.418,3.961,2.418,5.856c0,1.334-1.082,2.417-2.418,2.417
		c-1.337,0-2.42-1.083-2.42-2.417C305.564,43.912,307.984,42.019,307.984,40.021 M308.605,80.055c0,1.339-1.085,2.423-2.42,2.423
		c-1.338,0-2.42-1.084-2.42-2.423c0-1.963,2.42-3.854,2.42-5.854C306.186,76.166,308.605,78.167,308.605,80.055 M305.435,58.609
		c0,1.963,2.42,3.962,2.42,5.857c0,1.336-1.085,2.417-2.42,2.417c-1.334,0-2.419-1.081-2.419-2.417
		C303.016,62.501,305.435,60.608,305.435,58.609 M305.886,108.862c-1.336,0-2.419-1.083-2.419-2.42c0-1.962,2.419-3.857,2.419-5.855
		c0,1.964,2.419,3.964,2.419,5.855C308.305,107.779,307.221,108.862,305.886,108.862 M310.383,95.751
		c-1.335,0-2.418-1.083-2.418-2.421c0-1.963,2.418-3.856,2.418-5.856c0,1.963,2.419,3.963,2.419,5.856
		C312.802,94.668,311.721,95.751,310.383,95.751 M312.783,66.883c-1.338,0-2.421-1.081-2.421-2.417c0-1.965,2.421-3.858,2.421-5.857
		c0,1.963,2.418,3.962,2.418,5.857C315.201,65.802,314.117,66.883,312.783,66.883"/>
	<path clip-path="url(#SVGID_2_)" fill="#FFFFFF" d="M344.169,135.324c0,0,0.06-0.045,0.171-0.125
		c-0.012-0.008-0.019-0.014-0.031-0.022L344.169,135.324z"/>
	<path clip-path="url(#SVGID_2_)" fill="#FFFFFF" d="M399.357,36.573c-3.42-3.212-12.661-12.153-12.661-12.153l0.132,0.139
		c0,0-29.24,1.374-17.172,48.398c6.379,24.858,3.633,32.729-2.982,42.95c-6.356,9.826-21.293,18.597-22.219,19.135
		c0.022,0.014,0.036,0.024,0.056,0.034c1.632-1.148,9.37-6.137,28.006-11.906c15.758-4.878,23.802-14.684,24.309-27.347
		c0.506-12.66-9.116-43.043-9.116-43.043C384.586,41.436,393.598,34.531,399.357,36.573 M386.447,64.466
		c0,1.337-1.083,2.418-2.419,2.418c-1.337,0-2.42-1.081-2.42-2.418c0-1.894,2.42-3.893,2.42-5.857
		C384.028,60.607,386.447,62.5,386.447,64.466 M385.962,80.056c0,1.338-1.085,2.423-2.419,2.423s-2.418-1.085-2.418-2.423
		c0-1.89,2.418-3.89,2.418-5.854C383.543,76.202,385.962,78.093,385.962,80.056 M379.945,41.82c0,1.998,2.418,3.891,2.418,5.856
		c0,1.334-1.083,2.416-2.418,2.416c-1.337,0-2.419-1.082-2.419-2.416C377.526,45.781,379.945,43.785,379.945,41.82 M374.263,64.466
		c0-1.894,2.42-3.893,2.42-5.857c0,1.999,2.42,3.892,2.42,5.857c0,1.337-1.082,2.418-2.42,2.418
		C375.347,66.884,374.263,65.803,374.263,64.466 M379.082,95.75c-1.337,0-2.418-1.083-2.418-2.42c0-1.894,2.418-3.893,2.418-5.856
		c0,2,2.42,3.893,2.42,5.856C381.502,94.667,380.418,95.75,379.082,95.75 M384.182,108.862c-1.34,0-2.422-1.083-2.422-2.419
		c0-1.891,2.422-3.891,2.422-5.855c0,1.997,2.416,3.893,2.416,5.855C386.598,107.779,385.515,108.862,384.182,108.862
		 M390.025,87.475c0,2,2.418,3.893,2.418,5.856c0,1.337-1.083,2.42-2.418,2.42c-1.337,0-2.417-1.083-2.417-2.42
		C387.608,91.437,390.025,89.438,390.025,87.475"/>
	<path clip-path="url(#SVGID_2_)" fill="#FFFFFF" d="M344.508,135.324l0.129-0.168c0,0-0.05-0.032-0.126-0.08
		c-0.068,0.048-0.123,0.088-0.171,0.123C344.451,135.279,344.508,135.324,344.508,135.324"/>
	<path clip-path="url(#SVGID_2_)" fill="#FFFFFF" d="M352.927,49.843c0,0-1.229,0.006-1.305,0.584
		c-0.138,1.027,1.299,1.258,0.061,2.396c-1.24,1.136-3.823,1.86-3.823,1.86s-1.376,0.104-2.065,0.036
		c-0.688-0.072-0.618-1.449-0.067-1.449c0.55,0,0.339-0.047,1.513,0.347c0.62,0.205,2.585-0.485,1.757-1.105
		c-0.826-0.62-1.549-1.445-1.137-2.269c0.416-0.828,0.392-1.342,0.392-1.342s0.851-0.271,1.335-0.607
		c0.487-0.332,0.974-0.727,1.367-0.941c0.395-0.211,0.487-0.273,0.487-0.273s-0.479,0.623-0.427,1.277
		C351.099,49.415,352.927,49.843,352.927,49.843"/>
	<path clip-path="url(#SVGID_2_)" fill="#FFFFFF" d="M339.32,38.508c-0.508,0-1.046,0.537-1.046,0.537s-0.832-0.388-1.534-0.393
		c-0.702,0.005-1.535,0.393-1.535,0.393s-0.535-0.537-1.045-0.537c-0.507,0-0.536,0.171-0.452,0.48
		c0.084,0.311,0.396,0.933,0.482,1.328c0.084,0.396-0.058,1.129,0.027,1.554c0.084,0.424,0.274,0.972,0.789,1.269
		c0.378,0.218,0.435,0.388,0.633,0.895c0.197,0.507,0.433,0.809,1.092,0.801h0.018c0.66,0.008,0.896-0.294,1.094-0.801
		c0.196-0.507,0.255-0.677,0.631-0.895c0.517-0.297,0.706-0.845,0.792-1.269c0.084-0.425-0.06-1.158,0.028-1.554
		c0.084-0.395,0.395-1.017,0.479-1.328C339.858,38.679,339.831,38.508,339.32,38.508 M335.15,41.125
		c-0.163-0.204-0.163-0.365-0.163-0.365s0.524-0.079,0.812,0c0.283,0.08,0.568,0.808,0.568,0.808s0.036,0.08-0.446-0.039
		C335.433,41.41,335.315,41.327,335.15,41.125 M336.749,43.921l-0.002-0.426l-0.003,0.426c-0.403,0-0.847,0.142-0.847,0.142
		s0.057-0.038,0.451-0.189c0.396-0.154,0.35-0.376,0.35-0.376s0.039-0.251-0.31-0.489c-0.307-0.209-0.456-0.548-0.456-0.548
		s0.362,0.242,0.814,0.243c0.456-0.001,0.818-0.243,0.818-0.243s-0.149,0.339-0.457,0.548c-0.349,0.238-0.31,0.489-0.31,0.489
		s-0.048,0.222,0.349,0.376c0.394,0.151,0.452,0.189,0.452,0.189S337.156,43.921,336.749,43.921 M338.325,41.125
		c-0.163,0.202-0.284,0.285-0.771,0.404c-0.486,0.119-0.444,0.039-0.444,0.039s0.282-0.728,0.567-0.808c0.284-0.079,0.807,0,0.807,0
		S338.484,40.921,338.325,41.125"/>
	<polygon clip-path="url(#SVGID_2_)" fill="#FFFFFF" points="336.723,38.652 336.74,38.652 336.76,38.652 	"/>
	<path clip-path="url(#SVGID_2_)" fill="#FFFFFF" d="M336.297,48.314c0,0-1.491-2.104-1.457-3.643
		c-1.077,0.616-1.571,0.484-2.128,0.563c-0.559,0.08-3.098-0.492-3.098-0.492s0.209,0.048-0.029-1.465
		c-0.241-1.514-1.911-0.158-1.911-0.158s0.666,0.967,0.797,1.352c0.157,0.476,0.238,0.875,0.318,1.273
		c0.111,0.553,4.053,0.775,6.202,1.572C335.812,47.62,335.955,48.016,336.297,48.314"/>
	<path clip-path="url(#SVGID_2_)" fill="#FFFFFF" d="M358.105,41.456c-6.192-1.128-5.17-1.797-3.856-3.192
		c0.67-0.713-1.891-0.933-1.953,0.822c-0.117,3.295,7.883,2.536,7.086,5.349c-0.47,1.659-2.813,0.215-5.1-0.911
		c-3.071-1.977-5.361-0.941-6.602-0.336c-3.409,1.667-6.99-0.854-7.195-0.952c0,0-0.562-0.654-0.721-1.053
		c-0.159-0.4,0.079,0.399-0.159,1.193c-0.239,0.798-0.638,0.877-0.956,1.195c-0.318,0.32-0.182,1.203-0.878,1.594
		c-1.272,0.717-2.387-0.398-2.387-0.398l-0.083-0.01c0,0,0.217,1.658,1.353,3.04l-0.027-0.007c0.405,0.564,0.586,1.138,0.61,1.219
		c-0.006,0.014-0.021,0.092-0.06,0.429c-0.139,1.255-1.954,3.423-2.403,3.648c-0.414,0.206-1.845-0.728-2.309-0.08
		c-0.398,0.556-0.788,1.337-0.452,1.389c0.404,0.064,1.236-0.209,2.442,0.122c0.663,0.186,1.139-0.191,1.965-0.81
		c0.86-0.647,2.126-1.913,2.961-2.548c1.971-1.494,3.489-1.476,4.276-1.493c0.171-0.003,1.134-0.197,1.134-0.197l-0.055-0.012
		c1.699-0.283,3.519-0.849,5.113-1.897c0.939-0.618,2.344-1.418,2.692-1.177c-2.711,2.171,1.287,3.235,1.287,3.235
		c2.158,1.096,2.403,1.942,2.528,3.105c-0.172,0.736-0.898,0.566-1.723,0.899c-0.96,0.39-0.439,1.144-0.439,1.144
		s1.15-0.032,2.027,0.017c0.541-0.17,0.956-0.407,0.963-0.498c-0.003-0.024,0.047-0.689,0.448-1.834
		c0.644-1.831-0.268-2.116-0.304-3.742c-0.735,1.478-2.922-3.135-0.803-2.219C361.484,48.639,362.598,42.272,358.105,41.456
		 M339.478,48.119c0-0.709-1.131-1.132-1.131-1.132s1.131-0.422,1.131-1.131c0.046,0.709,1.133,1.131,1.133,1.131
		S339.43,47.364,339.478,48.119 M343.491,46.865c0-0.707-1.13-1.133-1.13-1.133s1.13-0.423,1.13-1.131
		c0.048,0.708,1.133,1.131,1.133,1.131S343.444,46.11,343.491,46.865 M347.758,47.49c0-0.707-1.134-1.13-1.134-1.13
		s1.134-0.425,1.134-1.134c0.046,0.709,1.131,1.134,1.131,1.134S347.709,46.735,347.758,47.49 M351.395,45.736
		c0-0.71-1.132-1.132-1.132-1.132s1.132-0.425,1.132-1.134c0.046,0.709,1.133,1.134,1.133,1.134S351.347,44.982,351.395,45.736"/>
	<path clip-path="url(#SVGID_2_)" fill="#FFFFFF" d="M354.535,76.241c0,0-1.482,0.009-1.574,0.706
		c-0.165,1.24,1.57,1.52,0.074,2.892c-1.496,1.371-4.616,2.244-4.616,2.244s-1.659,0.126-2.491,0.044
		c-0.832-0.086-0.749-1.749-0.082-1.749c0.663,0,0.408-0.057,1.826,0.42c0.747,0.246,3.12-0.586,2.12-1.334
		c-0.997-0.748-1.873-1.744-1.373-2.741c0.501-1,0.474-1.619,0.474-1.619s1.025-0.327,1.611-0.733
		c0.587-0.4,1.175-0.878,1.651-1.134c0.476-0.255,0.586-0.33,0.586-0.33s-0.575,0.751-0.515,1.54
		C352.329,75.723,354.535,76.241,354.535,76.241"/>
	<path clip-path="url(#SVGID_2_)" fill="#FFFFFF" d="M338.112,62.558c-0.615,0-1.263,0.648-1.263,0.648s-1.003-0.469-1.854-0.473
		c-0.845,0.004-1.853,0.473-1.853,0.473s-0.646-0.648-1.26-0.648c-0.612,0-0.649,0.207-0.544,0.581
		c0.099,0.376,0.474,1.123,0.579,1.601c0.102,0.478-0.068,1.364,0.032,1.876c0.104,0.513,0.332,1.174,0.954,1.534
		c0.457,0.261,0.524,0.465,0.763,1.081c0.238,0.611,0.521,0.975,1.319,0.965h0.022c0.795,0.01,1.08-0.354,1.32-0.965
		c0.236-0.616,0.306-0.82,0.759-1.081c0.625-0.36,0.854-1.021,0.956-1.534c0.103-0.512-0.07-1.398,0.035-1.876
		c0.102-0.478,0.475-1.225,0.578-1.601C338.76,62.765,338.726,62.558,338.112,62.558 M333.077,65.717
		c-0.196-0.246-0.196-0.441-0.196-0.441s0.637-0.095,0.979,0c0.342,0.099,0.688,0.978,0.688,0.978s0.044,0.097-0.541-0.049
		C333.419,66.061,333.275,65.963,333.077,65.717 M335.01,69.094l-0.004-0.517l-0.004,0.517c-0.487,0-1.021,0.171-1.021,0.171
		s0.068-0.046,0.542-0.228c0.479-0.185,0.421-0.455,0.421-0.455s0.05-0.306-0.371-0.591c-0.371-0.253-0.552-0.66-0.552-0.66
		s0.438,0.292,0.984,0.292c0.551,0,0.986-0.292,0.986-0.292s-0.179,0.407-0.551,0.66c-0.422,0.285-0.374,0.591-0.374,0.591
		s-0.057,0.27,0.422,0.455c0.475,0.182,0.546,0.228,0.546,0.228S335.498,69.094,335.01,69.094 M336.91,65.717
		c-0.195,0.246-0.342,0.343-0.929,0.488c-0.588,0.146-0.538,0.049-0.538,0.049s0.342-0.879,0.686-0.978c0.344-0.095,0.974,0,0.974,0
		S337.103,65.471,336.91,65.717"/>
	<polygon clip-path="url(#SVGID_2_)" fill="#FFFFFF" points="334.977,62.733 334.996,62.733 335.021,62.733 	"/>
	<path clip-path="url(#SVGID_2_)" fill="#FFFFFF" d="M334.463,74.397c0,0-1.802-2.542-1.758-4.4c-1.301,0.744-1.9,0.586-2.571,0.681
		c-0.674,0.096-3.737-0.594-3.737-0.594s0.251,0.058-0.037-1.77c-0.288-1.825-2.308-0.191-2.308-0.191s0.806,1.168,0.962,1.633
		c0.192,0.578,0.289,1.057,0.385,1.537c0.134,0.667,4.896,0.937,7.489,1.898C333.875,73.559,334.051,74.036,334.463,74.397"/>
	<path clip-path="url(#SVGID_2_)" fill="#FFFFFF" d="M360.787,66.119c-7.476-1.362-6.239-2.172-4.652-3.856
		c0.808-0.858-2.283-1.124-2.358,0.993c-0.143,3.978,9.515,3.063,8.552,6.46c-0.565,2.001-3.395,0.258-6.155-1.1
		c-3.706-2.388-6.471-1.139-7.968-0.407c-4.116,2.012-8.439-1.031-8.688-1.148c0,0-0.675-0.791-0.867-1.271
		c-0.192-0.485,0.095,0.48-0.192,1.439c-0.289,0.963-0.771,1.058-1.156,1.442c-0.383,0.385-0.219,1.452-1.058,1.926
		c-1.538,0.863-2.881-0.482-2.881-0.482l-0.099-0.011c0,0,0.26,2,1.628,3.669l-0.033-0.007c0.49,0.678,0.709,1.371,0.739,1.47
		c-0.008,0.015-0.026,0.111-0.072,0.517c-0.169,1.515-2.36,4.131-2.9,4.402c-0.5,0.25-2.229-0.876-2.786-0.095
		c-0.483,0.671-0.952,1.617-0.548,1.677c0.491,0.077,1.491-0.252,2.948,0.148c0.802,0.223,1.375-0.231,2.372-0.979
		c1.037-0.78,2.567-2.309,3.576-3.075c2.378-1.805,4.21-1.782,5.161-1.803c0.205-0.003,1.37-0.235,1.37-0.235l-0.068-0.016
		c2.054-0.342,4.247-1.026,6.175-2.291c1.133-0.746,2.826-1.713,3.248-1.42c-3.271,2.62,1.554,3.905,1.554,3.905
		c2.604,1.319,2.901,2.346,3.051,3.748c-0.204,0.889-1.083,0.684-2.078,1.086c-1.16,0.471-0.531,1.38-0.531,1.38
		s1.39-0.037,2.449,0.021c0.652-0.205,1.152-0.491,1.164-0.602c-0.006-0.028,0.053-0.831,0.538-2.212
		c0.776-2.211-0.322-2.555-0.366-4.517c-0.887,1.784-3.529-3.787-0.969-2.679C364.865,74.787,366.211,67.104,360.787,66.119
		 M338.302,74.161c0-0.856-1.367-1.366-1.367-1.366s1.367-0.51,1.367-1.367c0.056,0.857,1.366,1.367,1.366,1.367
		S338.244,73.25,338.302,74.161 M343.146,72.646c0-0.854-1.364-1.367-1.364-1.367s1.364-0.513,1.364-1.365
		c0.059,0.852,1.367,1.365,1.367,1.365S343.089,71.735,343.146,72.646 M348.297,73.403c0-0.854-1.368-1.367-1.368-1.367
		s1.368-0.511,1.368-1.365c0.056,0.854,1.364,1.365,1.364,1.365S348.238,72.492,348.297,73.403 M352.687,71.284
		c0-0.856-1.363-1.366-1.363-1.366s1.363-0.512,1.363-1.367c0.057,0.855,1.367,1.367,1.367,1.367S352.632,70.373,352.687,71.284"/>
	<path clip-path="url(#SVGID_2_)" fill="#FFFFFF" d="M357.906,105.396c0,0-1.804,0.012-1.915,0.858
		c-0.199,1.506,1.907,1.846,0.089,3.514c-1.816,1.666-5.605,2.727-5.605,2.727s-2.019,0.152-3.027,0.053
		c-1.012-0.104-0.911-2.123-0.102-2.123c0.806,0,0.495-0.071,2.221,0.507c0.908,0.301,3.788-0.71,2.575-1.619
		c-1.211-0.908-2.274-2.121-1.667-3.33c0.607-1.213,0.572-1.967,0.572-1.967s1.248-0.397,1.96-0.891
		c0.713-0.486,1.425-1.068,2.006-1.378c0.578-0.311,0.713-0.401,0.713-0.401s-0.7,0.912-0.627,1.87
		C355.224,104.771,357.906,105.396,357.906,105.396"/>
	<path clip-path="url(#SVGID_2_)" fill="#FFFFFF" d="M337.949,88.774c-0.746,0-1.533,0.786-1.533,0.786s-1.219-0.569-2.252-0.576
		c-1.025,0.007-2.248,0.576-2.248,0.576s-0.787-0.786-1.533-0.786c-0.743,0-0.787,0.253-0.661,0.705
		c0.122,0.457,0.577,1.367,0.701,1.945c0.127,0.582-0.079,1.658,0.043,2.281c0.124,0.619,0.402,1.426,1.157,1.862
		c0.555,0.318,0.639,0.568,0.926,1.312c0.291,0.744,0.638,1.186,1.604,1.175h0.026c0.967,0.011,1.314-0.431,1.604-1.175
		c0.288-0.744,0.372-0.994,0.923-1.312c0.759-0.436,1.037-1.243,1.16-1.862c0.124-0.623-0.083-1.699,0.044-2.281
		c0.124-0.578,0.577-1.488,0.702-1.945C338.737,89.027,338.697,88.774,337.949,88.774 M331.834,92.611
		c-0.239-0.298-0.239-0.535-0.239-0.535s0.772-0.116,1.19,0c0.415,0.12,0.831,1.186,0.831,1.186s0.057,0.119-0.652-0.057
		C332.248,93.029,332.074,92.909,331.834,92.611 M334.18,96.713l-0.005-0.625l-0.003,0.625c-0.592,0-1.242,0.21-1.242,0.21
		s0.085-0.057,0.661-0.279c0.581-0.223,0.514-0.553,0.514-0.553s0.056-0.369-0.456-0.716c-0.448-0.306-0.667-0.801-0.667-0.801
		s0.531,0.351,1.193,0.354c0.67-0.003,1.2-0.354,1.2-0.354s-0.218,0.495-0.67,0.801c-0.511,0.347-0.453,0.716-0.453,0.716
		s-0.069,0.33,0.51,0.553c0.579,0.222,0.666,0.279,0.666,0.279S334.774,96.713,334.18,96.713 M336.489,92.611
		c-0.236,0.298-0.416,0.418-1.126,0.594c-0.715,0.176-0.655,0.057-0.655,0.057s0.414-1.066,0.834-1.186c0.416-0.116,1.182,0,1.182,0
		S336.724,92.313,336.489,92.611"/>
	<polygon clip-path="url(#SVGID_2_)" fill="#FFFFFF" points="334.141,88.984 334.165,88.984 334.193,88.984 	"/>
	<path clip-path="url(#SVGID_2_)" fill="#FFFFFF" d="M333.516,103.156c0,0-2.188-3.087-2.136-5.343
		c-1.581,0.905-2.309,0.711-3.122,0.827c-0.82,0.117-4.544-0.723-4.544-0.723s0.307,0.07-0.044-2.148
		c-0.351-2.221-2.802-0.235-2.802-0.235s0.979,1.421,1.169,1.985c0.234,0.701,0.349,1.286,0.466,1.867
		c0.161,0.812,5.947,1.138,9.099,2.307C332.803,102.138,333.016,102.718,333.516,103.156"/>
	<path clip-path="url(#SVGID_2_)" fill="#FFFFFF" d="M365.501,93.1c-9.083-1.656-7.581-2.64-5.653-4.685
		c0.98-1.043-2.775-1.365-2.865,1.209c-0.172,4.828,11.56,3.718,10.392,7.844c-0.688,2.432-4.126,0.318-7.48-1.335
		c-4.503-2.902-7.861-1.382-9.681-0.494c-5.001,2.444-10.254-1.254-10.556-1.396c0,0-0.823-0.96-1.056-1.544
		c-0.232-0.587,0.117,0.584-0.232,1.75c-0.352,1.169-0.936,1.283-1.403,1.75c-0.466,0.471-0.268,1.764-1.286,2.341
		c-1.866,1.049-3.503-0.587-3.503-0.587l-0.117-0.013c0,0,0.316,2.431,1.979,4.458l-0.041-0.009c0.596,0.827,0.862,1.67,0.898,1.788
		c-0.01,0.017-0.033,0.137-0.088,0.629c-0.203,1.839-2.867,5.018-3.524,5.347c-0.607,0.304-2.708-1.066-3.386-0.115
		c-0.585,0.815-1.156,1.962-0.663,2.039c0.593,0.092,1.812-0.308,3.581,0.177c0.975,0.272,1.671-0.277,2.884-1.191
		c1.259-0.945,3.118-2.804,4.344-3.733c2.887-2.193,5.115-2.166,6.27-2.19c0.249-0.005,1.663-0.287,1.663-0.287l-0.08-0.019
		c2.495-0.415,5.159-1.245,7.5-2.784c1.378-0.906,3.435-2.08,3.946-1.724c-3.976,3.183,1.891,4.743,1.891,4.743
		c3.164,1.606,3.522,2.848,3.704,4.554c-0.249,1.08-1.315,0.83-2.524,1.319c-1.409,0.574-0.646,1.676-0.646,1.676
		s1.688-0.043,2.977,0.026c0.791-0.248,1.402-0.597,1.415-0.731c-0.01-0.032,0.063-1.009,0.654-2.687
		c0.942-2.687-0.393-3.106-0.445-5.49c-1.078,2.168-4.288-4.598-1.179-3.255C370.457,103.631,372.088,94.297,365.501,93.1
		 M338.18,102.872c0-1.041-1.659-1.662-1.659-1.662s1.659-0.618,1.659-1.66c0.068,1.042,1.66,1.66,1.66,1.66
		S338.111,101.762,338.18,102.872 M344.067,101.032c0-1.038-1.659-1.662-1.659-1.662s1.659-0.622,1.659-1.66
		c0.071,1.038,1.661,1.66,1.661,1.66S343.997,99.922,344.067,101.032 M350.325,101.949c0-1.036-1.664-1.659-1.664-1.659
		s1.664-0.623,1.664-1.66c0.067,1.037,1.658,1.66,1.658,1.66S350.253,100.841,350.325,101.949 M355.658,99.375
		c0-1.039-1.658-1.66-1.658-1.66s1.658-0.623,1.658-1.662c0.069,1.039,1.662,1.662,1.662,1.662S355.59,98.268,355.658,99.375"/>
	<path clip-path="url(#SVGID_2_)" fill="#FFFFFF" d="M216.895,208.079h3.373v4.692c1.344-1.793,2.839-3.139,4.471-4.023
		c1.637-0.896,3.42-1.341,5.341-1.341c1.961,0,3.7,0.498,5.211,1.492c1.518,0.996,2.634,2.335,3.358,4.016
		c0.722,1.686,1.085,4.311,1.085,7.87v13.478h-3.371v-12.488c0-3.018-0.127-5.031-0.375-6.042c-0.39-1.732-1.138-3.033-2.243-3.911
		c-1.105-0.871-2.553-1.31-4.334-1.31c-2.037,0-3.86,0.675-5.474,2.02c-1.614,1.349-2.675,3.019-3.188,5.005
		c-0.32,1.303-0.48,3.675-0.48,7.125v9.602h-3.373V208.079z"/>
	<path clip-path="url(#SVGID_2_)" fill="#FFFFFF" d="M248.478,197.303c0.765,0,1.421,0.274,1.963,0.818
		c0.543,0.545,0.814,1.201,0.814,1.973c0,0.752-0.271,1.403-0.814,1.945c-0.542,0.546-1.198,0.819-1.963,0.819
		c-0.752,0-1.4-0.273-1.944-0.819c-0.544-0.542-0.811-1.193-0.811-1.945c0-0.771,0.267-1.428,0.811-1.973
		C247.077,197.577,247.726,197.303,248.478,197.303 M246.805,208.079h3.366v26.184h-3.366V208.079z"/>
	<polygon clip-path="url(#SVGID_2_)" fill="#FFFFFF" points="254.786,208.079 258.37,208.079 267.158,227.165 275.84,208.079 
		279.448,208.079 267.464,234.263 266.842,234.263 	"/>
	<path clip-path="url(#SVGID_2_)" fill="#FFFFFF" d="M304.953,225.577l2.84,1.487c-0.932,1.831-2.006,3.306-3.23,4.428
		c-1.218,1.124-2.59,1.976-4.116,2.563c-1.525,0.588-3.252,0.88-5.179,0.88c-4.27,0-7.609-1.401-10.017-4.198
		c-2.406-2.802-3.61-5.965-3.61-9.495c0-3.318,1.017-6.28,3.058-8.879c2.582-3.303,6.044-4.955,10.378-4.955
		c4.463,0,8.027,1.691,10.693,5.083c1.895,2.381,2.857,5.371,2.888,8.944h-23.553c0.062,3.041,1.034,5.535,2.913,7.477
		c1.877,1.945,4.2,2.915,6.96,2.915c1.334,0,2.632-0.229,3.891-0.693c1.261-0.462,2.333-1.079,3.218-1.847
		C302.971,228.524,303.923,227.281,304.953,225.577 M304.953,218.522c-0.447-1.793-1.105-3.229-1.963-4.307
		c-0.863-1.072-1.997-1.938-3.407-2.597c-1.416-0.66-2.901-0.99-4.462-0.99c-2.569,0-4.78,0.832-6.622,2.481
		c-1.349,1.201-2.37,3.005-3.058,5.412H304.953z"/>
	<path clip-path="url(#SVGID_2_)" fill="#FFFFFF" d="M314.141,208.079h3.441v3.829c1.025-1.507,2.107-2.637,3.244-3.383
		c1.141-0.746,2.325-1.118,3.566-1.118c0.928,0,1.921,0.296,2.978,0.894l-1.755,2.835c-0.704-0.302-1.296-0.454-1.773-0.454
		c-1.128,0-2.21,0.458-3.256,1.386c-1.039,0.923-1.833,2.351-2.377,4.289c-0.423,1.492-0.627,4.508-0.627,9.046v8.86h-3.441V208.079
		z"/>
	<path clip-path="url(#SVGID_2_)" fill="#FFFFFF" d="M344.049,210.95l-2.161,2.234c-1.805-1.751-3.567-2.628-5.285-2.628
		c-1.097,0-2.032,0.364-2.812,1.085s-1.171,1.563-1.171,2.526c0,0.853,0.318,1.664,0.966,2.432c0.644,0.786,1.994,1.707,4.048,2.765
		c2.51,1.3,4.218,2.55,5.112,3.755c0.886,1.22,1.327,2.592,1.327,4.116c0,2.147-0.754,3.967-2.267,5.461
		c-1.508,1.492-3.396,2.238-5.659,2.238c-1.513,0-2.956-0.33-4.328-0.991c-1.375-0.654-2.511-1.559-3.411-2.714l2.119-2.408
		c1.724,1.939,3.543,2.912,5.477,2.912c1.348,0,2.498-0.436,3.445-1.299c0.947-0.868,1.421-1.882,1.421-3.057
		c0-0.959-0.309-1.82-0.935-2.572c-0.63-0.739-2.041-1.67-4.247-2.794c-2.362-1.221-3.968-2.419-4.821-3.605
		c-0.847-1.189-1.277-2.548-1.277-4.068c0-1.991,0.679-3.639,2.035-4.956c1.354-1.315,3.073-1.975,5.146-1.975
		C339.18,207.407,341.605,208.589,344.049,210.95"/>
	<path clip-path="url(#SVGID_2_)" fill="#FFFFFF" d="M351.345,197.303c0.766,0,1.424,0.274,1.962,0.818
		c0.545,0.545,0.814,1.201,0.814,1.973c0,0.752-0.27,1.403-0.814,1.945c-0.538,0.546-1.196,0.819-1.962,0.819
		c-0.749,0-1.398-0.273-1.942-0.819c-0.543-0.542-0.812-1.193-0.812-1.945c0-0.771,0.269-1.428,0.812-1.973
		C349.946,197.577,350.596,197.303,351.345,197.303 M349.675,208.079h3.365v26.184h-3.365V208.079z"/>
	<polygon clip-path="url(#SVGID_2_)" fill="#FFFFFF" points="362.642,198.359 366.007,198.359 366.007,208.079 371.353,208.079 
		371.353,210.992 366.007,210.992 366.007,234.263 362.642,234.263 362.642,210.992 358.045,210.992 358.045,208.079 
		362.642,208.079 	"/>
	<polygon clip-path="url(#SVGID_2_)" fill="#FFFFFF" points="374.813,208.079 378.371,208.079 387.371,228.238 396.105,208.079 
		399.691,208.079 384.073,243.836 380.519,243.836 385.557,232.276 	"/>
	<path clip-path="url(#SVGID_2_)" fill="#FFFFFF" d="M197.805,235.628c-0.271,0-0.474-0.012-0.586-0.021h-1.288
		c-0.767,0.051-5.725,0.217-9.713-3.408c-3.239-2.942-4.899-7.481-4.932-13.487c-0.023-3.199-0.003-20.001-0.003-20.169l3.534,0.003
		c0,0.169-0.014,16.957,0.002,20.145c0.031,4.977,1.3,8.641,3.776,10.893c3.107,2.824,7.077,2.503,7.116,2.497l0.157-0.005
		l1.573,0.005c0.032,0.003,4.076,0.291,7.146-2.525c2.456-2.254,3.714-5.909,3.744-10.864c0.018-3.188,0.002-19.976,0.002-20.145
		l3.536-0.003c0,0.168,0.016,16.97-0.001,20.169c-0.039,6.006-1.695,10.545-4.934,13.487
		C203.528,235.295,199.412,235.628,197.805,235.628"/>
	<polygon clip-path="url(#SVGID_2_)" fill="#FFFFFF" points="35.03,142.055 42.946,142.055 42.946,157.524 56.633,157.524 
		56.633,142.055 64.521,142.055 64.521,183.058 56.633,183.058 56.633,165.079 42.946,165.079 42.946,183.058 35.03,183.058 	"/>
	<path clip-path="url(#SVGID_2_)" fill="#FFFFFF" d="M92.877,152.73h7.609v30.327h-7.609v-3.205
		c-1.486,1.413-2.975,2.43-4.469,3.052c-1.494,0.623-3.114,0.935-4.859,0.935c-3.916,0-7.304-1.52-10.162-4.558
		c-2.859-3.039-4.287-6.815-4.287-11.331c0-4.684,1.382-8.52,4.148-11.513c2.766-2.991,6.125-4.487,10.079-4.487
		c1.819,0,3.526,0.345,5.122,1.031c1.596,0.688,3.072,1.719,4.428,3.094V152.73z M84.877,158.975c-2.353,0-4.306,0.832-5.862,2.495
		c-1.556,1.663-2.334,3.796-2.334,6.396c0,2.62,0.792,4.776,2.375,6.468c1.584,1.69,3.533,2.537,5.848,2.537
		c2.39,0,4.371-0.832,5.946-2.496c1.573-1.662,2.361-3.842,2.361-6.536c0-2.639-0.788-4.776-2.361-6.411
		C89.275,159.793,87.285,158.975,84.877,158.975"/>
	<path clip-path="url(#SVGID_2_)" fill="#FFFFFF" d="M104.86,152.73h6.523v3.819c0.706-1.505,1.644-2.648,2.815-3.429
		c1.171-0.78,2.453-1.171,3.847-1.171c0.984,0,2.016,0.261,3.094,0.78l-2.369,6.551c-0.892-0.446-1.627-0.669-2.202-0.669
		c-1.171,0-2.161,0.725-2.969,2.174c-0.808,1.449-1.213,4.293-1.213,8.529l0.028,1.479v12.265h-7.554V152.73z"/>
	<path clip-path="url(#SVGID_2_)" fill="#FFFFFF" d="M130.178,152.73v3.345c1.375-1.375,2.861-2.405,4.459-3.094
		c1.599-0.687,3.308-1.031,5.129-1.031c3.959,0,7.322,1.496,10.091,4.487c2.769,2.993,4.154,6.829,4.154,11.513
		c0,4.516-1.432,8.292-4.293,11.331c-2.862,3.038-6.254,4.558-10.174,4.558c-1.747,0-3.373-0.312-4.878-0.935
		c-1.506-0.622-3.002-1.639-4.488-3.052v14.3h-7.554V152.73H130.178z M138.178,158.975c-2.397,0-4.386,0.818-5.965,2.453
		c-1.58,1.635-2.369,3.772-2.369,6.411c0,2.694,0.789,4.874,2.369,6.536c1.579,1.664,3.568,2.496,5.965,2.496
		c2.322,0,4.278-0.847,5.867-2.537c1.589-1.691,2.383-3.848,2.383-6.468c0-2.601-0.78-4.733-2.341-6.396
		S140.556,158.975,138.178,158.975"/>
	<path clip-path="url(#SVGID_2_)" fill="#FFFFFF" d="M187.971,170.097h-24.446c0.353,2.156,1.296,3.87,2.829,5.143
		c1.533,1.273,3.489,1.909,5.868,1.909c2.843,0,5.286-0.994,7.331-2.982l6.411,3.011c-1.599,2.267-3.512,3.943-5.742,5.03
		c-2.23,1.088-4.879,1.632-7.944,1.632c-4.758,0-8.632-1.5-11.624-4.502c-2.992-3.001-4.488-6.76-4.488-11.275
		c0-4.627,1.491-8.469,4.474-11.526c2.982-3.057,6.722-4.585,11.22-4.585c4.775,0,8.659,1.528,11.651,4.585
		c2.992,3.058,4.488,7.095,4.488,12.111L187.971,170.097z M180.361,164.104c-0.502-1.691-1.494-3.066-2.974-4.125
		c-1.48-1.06-3.197-1.589-5.151-1.589c-2.123,0-3.984,0.594-5.584,1.784c-1.006,0.742-1.937,2.053-2.792,3.93H180.361z"/>
	<path clip-path="url(#SVGID_2_)" fill="#FFFFFF" d="M190.565,152.73h6.523v3.819c0.706-1.505,1.644-2.648,2.815-3.429
		s2.453-1.171,3.847-1.171c0.984,0,2.016,0.261,3.094,0.78l-2.369,6.551c-0.892-0.446-1.627-0.669-2.202-0.669
		c-1.171,0-2.161,0.725-2.969,2.174c-0.808,1.449-1.213,4.293-1.213,8.529l0.028,1.479v12.265h-7.554V152.73z"/>
	<path clip-path="url(#SVGID_2_)" fill="#FFFFFF" d="M235.929,142.055h7.916l15.77,41.003h-8.11l-3.209-8.444h-16.731l-3.336,8.444
		h-8.111L235.929,142.055z M239.936,152.926l-5.501,14.077h10.969L239.936,152.926z"/>
	<path clip-path="url(#SVGID_2_)" fill="#FFFFFF" d="M283.338,141.023h7.609v42.034h-7.609v-3.205
		c-1.486,1.413-2.975,2.43-4.469,3.052c-1.494,0.623-3.114,0.935-4.859,0.935c-3.916,0-7.304-1.52-10.162-4.558
		c-2.858-3.039-4.287-6.815-4.287-11.331c0-4.684,1.383-8.52,4.148-11.513c2.766-2.991,6.125-4.487,10.079-4.487
		c1.818,0,3.525,0.345,5.122,1.031c1.596,0.688,3.071,1.719,4.428,3.094V141.023z M275.338,158.975
		c-2.354,0-4.306,0.832-5.862,2.495c-1.556,1.663-2.334,3.796-2.334,6.396c0,2.62,0.792,4.776,2.375,6.468
		c1.584,1.69,3.533,2.537,5.849,2.537c2.39,0,4.371-0.832,5.945-2.496c1.573-1.662,2.361-3.842,2.361-6.536
		c0-2.639-0.788-4.776-2.361-6.411C279.736,159.793,277.746,158.975,275.338,158.975"/>
	<path clip-path="url(#SVGID_2_)" fill="#FFFFFF" d="M318.422,152.73h7.608v30.327h-7.608v-3.205
		c-1.486,1.413-2.976,2.43-4.47,3.052c-1.494,0.623-3.114,0.935-4.858,0.935c-3.916,0-7.305-1.52-10.162-4.558
		c-2.859-3.039-4.287-6.815-4.287-11.331c0-4.684,1.382-8.52,4.147-11.513c2.767-2.991,6.125-4.487,10.079-4.487
		c1.819,0,3.526,0.345,5.122,1.031c1.597,0.688,3.072,1.719,4.429,3.094V152.73z M310.422,158.975c-2.354,0-4.307,0.832-5.862,2.495
		c-1.557,1.663-2.334,3.796-2.334,6.396c0,2.62,0.792,4.776,2.375,6.468c1.584,1.69,3.533,2.537,5.848,2.537
		c2.39,0,4.371-0.832,5.946-2.496c1.573-1.662,2.361-3.842,2.361-6.536c0-2.639-0.788-4.776-2.361-6.411
		C314.819,159.793,312.829,158.975,310.422,158.975"/>
	<path clip-path="url(#SVGID_2_)" fill="#FFFFFF" d="M331.214,152.73h7.609v3.484c1.301-1.431,2.747-2.499,4.337-3.205
		s3.324-1.06,5.203-1.06c1.896,0,3.607,0.465,5.132,1.394c1.525,0.93,2.752,2.286,3.683,4.069c1.209-1.783,2.691-3.14,4.448-4.069
		c1.758-0.929,3.679-1.394,5.762-1.394c2.156,0,4.053,0.502,5.689,1.505c1.637,1.005,2.813,2.314,3.529,3.931
		c0.716,1.617,1.074,4.247,1.074,7.889v17.784h-7.666v-15.387c0-3.438-0.427-5.766-1.282-6.983
		c-0.855-1.216-2.137-1.825-3.847-1.825c-1.301,0-2.467,0.371-3.498,1.115c-1.031,0.743-1.798,1.77-2.299,3.08
		c-0.503,1.31-0.754,3.414-0.754,6.313v13.688h-7.665v-14.69c0-2.713-0.2-4.679-0.602-5.896c-0.4-1.217-1.001-2.122-1.802-2.718
		c-0.801-0.595-1.77-0.892-2.906-0.892c-1.266,0-2.416,0.376-3.45,1.129c-1.034,0.752-1.807,1.808-2.318,3.163
		c-0.513,1.357-0.769,3.494-0.769,6.411v13.492h-7.609V152.73z"/>
	<path clip-path="url(#SVGID_2_)" fill="#FFFFFF" d="M401.061,156.968l-4.712,4.71c-1.913-1.895-3.65-2.843-5.212-2.843
		c-0.854,0-1.523,0.181-2.007,0.544c-0.483,0.362-0.725,0.813-0.725,1.352c0,0.409,0.152,0.785,0.46,1.129
		c0.306,0.345,1.063,0.813,2.271,1.407l2.787,1.395c2.937,1.449,4.952,2.927,6.049,4.432s1.646,3.271,1.646,5.296
		c0,2.695-0.99,4.944-2.969,6.746c-1.979,1.803-4.633,2.704-7.958,2.704c-4.424,0-7.954-1.729-10.593-5.186l4.683-5.101
		c0.892,1.041,1.938,1.882,3.136,2.523c1.199,0.641,2.262,0.961,3.192,0.961c1.003,0,1.812-0.241,2.425-0.725
		c0.613-0.482,0.92-1.041,0.92-1.673c0-1.171-1.106-2.313-3.317-3.428l-2.564-1.283c-4.906-2.471-7.359-5.564-7.359-9.282
		c0-2.396,0.925-4.445,2.774-6.146c1.849-1.7,4.213-2.551,7.094-2.551c1.969,0,3.823,0.433,5.561,1.296
		C398.379,154.11,399.853,155.351,401.061,156.968"/>
</g>
</svg>
