<?xml version="1.0" encoding="iso-8859-1"?><!-- Generator: Adobe Illustrator 16.0.0, SVG Export Plug-In . SVG Version: 6.00 Build 0) --><!DOCTYPE svg PUBLIC "-//W3C//DTD SVG 1.1//EN" "http://www.w3.org/Graphics/SVG/1.1/DTD/svg11.dtd"><svg version="1.1" id="Layer_1" xmlns="http://www.w3.org/2000/svg" xmlns:xlink="http://www.w3.org/1999/xlink" x="0px" y="0px" width="362.733px" height="512px" viewBox="74.634 0 362.733 512" style="enable-background:new 74.634 0 362.733 512;" xml:space="preserve"><g><g><polygon style="fill:#e3b4e1;" points="107.644,470.877 74.634,100.62 437.367,100.62 404.321,470.819 255.778,512	"/><polygon style="fill:#e3b4e1;" points="256,480.522 376.03,447.246 404.27,130.894 256,130.894	"/><g><polygon style="fill:#F6DEF5;" points="256,268.217 195.91,268.217 191.76,221.716 256,221.716 256,176.305 255.844,176.305	142.132,176.305 143.219,188.488 154.38,313.627 256,313.627	"/><polygon style="fill:#F6DEF5;" points="256,386.153 255.802,386.206 205.227,372.55 201.994,336.333 177.419,336.333	156.409,336.333 162.771,407.634 255.791,433.457 256,433.399	"/></g><g><path style="fill:#e3b4e1;" d="M108.382,0h23.077v22.8h21.11V0h23.078v69.044H152.57v-23.12h-21.11v23.12h-23.076V0H108.382z"/><path style="fill:#e3b4e1;" d="M205.994,22.896h-20.315V0h63.72v22.896h-20.325v46.148h-23.078L205.994,22.896L205.994,22.896z"/><path style="fill:#e3b4e1;" d="M259.511,0h24.062l14.802,24.26L313.163,0h24.072v69.044h-22.982V34.822l-15.877,24.549h-0.396l-15.889-24.549v34.222	h-22.579V0z"/><path style="fill:#e3b4e1;" d="M348.72,0h23.084v46.222h32.453v22.822H348.72V0z"/></g><g><polygon style="fill:#FFFFFF;" points="255.844,268.217 255.844,313.627 311.761,313.627 306.49,372.521 255.844,386.191	255.844,433.435 348.937,407.634 349.62,399.962 360.291,280.411 361.399,268.217 349.162,268.217	"/><polygon style="fill:#FFF;" points="255.844,176.305 255.844,204.509 255.844,221.605 255.844,221.716 365.385,221.716	365.385,221.716 365.531,221.716 366.442,211.509 368.511,188.488 369.597,176.305	"/></g></g></g></svg>