<?xml version="1.0" encoding="iso-8859-1"?>
<!-- Generator: Adobe Illustrator 17.1.0, SVG Export Plug-In . SVG Version: 6.00 Build 0)  -->
<!DOCTYPE svg PUBLIC "-//W3C//DTD SVG 1.1//EN" "http://www.w3.org/Graphics/SVG/1.1/DTD/svg11.dtd">
<svg xmlns="http://www.w3.org/2000/svg" xmlns:xlink="http://www.w3.org/1999/xlink" version="1.1" id="Capa_1" x="0px" y="0px" viewBox="0 0 204.541 204.541" style="enable-background:new 0 0 204.541 204.541;" xml:space="preserve" width="512px" height="512px">
<path d="M143.165,82.4v112.133c0,5.519-4.489,10.008-10.008,10.008H71.384c-5.519,0-10.008-4.489-10.008-10.008V82.4  c0-5.519,4.489-10.009,10.008-10.009h61.773C138.676,72.392,143.165,76.882,143.165,82.4z M184.804,46.118  c-2.589-3.19-6.43-5.02-10.538-5.02h-23.058c-0.43-5.361-2.496-13.935-9.787-24.676c0.972-1.627,1.542-3.522,1.542-5.552  C142.962,4.877,138.085,0,132.091,0c-5.995,0-10.872,4.877-10.872,10.871s4.877,10.871,10.872,10.871  c0.278,0,0.551-0.021,0.824-0.042c5.945,8.67,7.729,15.419,8.207,19.398H63.419c0.478-3.978,2.263-10.723,8.198-19.384  c0.183,0.009,0.363,0.028,0.548,0.028c5.994,0,10.871-4.877,10.871-10.871S78.159,0,72.165,0C66.17,0,61.293,4.877,61.293,10.871  c0,2.122,0.62,4.097,1.676,5.772c-7.17,10.639-9.208,19.131-9.635,24.456H30.276c-4.108,0-7.949,1.829-10.538,5.02  c-2.588,3.189-3.588,7.324-2.743,11.343l7.854,37.374c1.313,6.247,6.898,10.78,13.281,10.78h13.247V82.4  c0-11.033,8.976-20.009,20.008-20.009h61.773c11.032,0,20.008,8.976,20.008,20.009v23.215h13.247c6.383,0,11.968-4.533,13.281-10.78  l7.853-37.373C188.392,53.442,187.392,49.308,184.804,46.118z" fill="#e3b4e1"/>
<g>
</g>
<g>
</g>
<g>
</g>
<g>
</g>
<g>
</g>
<g>
</g>
<g>
</g>
<g>
</g>
<g>
</g>
<g>
</g>
<g>
</g>
<g>
</g>
<g>
</g>
<g>
</g>
<g>
</g>
</svg>
