<?xml version="1.0" encoding="iso-8859-1"?>
<!-- Generator: Adobe Illustrator 19.0.0, SVG Export Plug-In . SVG Version: 6.00 Build 0)  -->
<svg xmlns="http://www.w3.org/2000/svg" xmlns:xlink="http://www.w3.org/1999/xlink" version="1.1" id="Capa_1" x="0px" y="0px" viewBox="0 0 487.07 487.07" style="enable-background:new 0 0 487.07 487.07;" xml:space="preserve" width="512px" height="512px">
<g>
	<g>
		<g>
			<path d="M420.889,186.944V421.03H132.358V130.385h234.108l21.182-22.261c0,0,32.378-33.046,63.526-48.383     V14.097H0v458.875h451.196V158.212c-4.228,4.249-6.989,6.795-6.989,6.795S433.939,174.67,420.889,186.944z" fill="#e3b4e1"/>
			<path d="M483.811,71.066c-19.069-13.805-84.126,49.095-84.126,49.095s-56.602,58.004-79.186,83.199     c3.149,5.371,7.485,10.98,12.77,16.351c4.961,4.918,10.095,9.017,15.035,12.123c25.389-22.455,83.889-78.992,83.889-78.992     S502.858,84.849,483.811,71.066z" fill="#e3b4e1"/>
			<path d="M276.386,289.082c16.113-10.332,39.367-28.711,67.215-53.043     c-4.897-3.063-9.944-7.011-14.798-11.929c-5.199-5.242-9.426-10.742-12.597-15.941c-24.246,27.438-42.581,50.432-53.107,66.46     c-3.257-0.065-31.709-0.302-51.986,19.888c-21.549,21.42-21.679,74.764-21.679,74.764s13.956-20.6,39.28-25.842     C258.073,337.379,271.706,319.281,276.386,289.082z" fill="#e3b4e1"/>
		</g>
	</g>
	<g>
	</g>
	<g>
	</g>
	<g>
	</g>
	<g>
	</g>
	<g>
	</g>
	<g>
	</g>
	<g>
	</g>
	<g>
	</g>
	<g>
	</g>
	<g>
	</g>
	<g>
	</g>
	<g>
	</g>
	<g>
	</g>
	<g>
	</g>
	<g>
	</g>
</g>
<g>
</g>
<g>
</g>
<g>
</g>
<g>
</g>
<g>
</g>
<g>
</g>
<g>
</g>
<g>
</g>
<g>
</g>
<g>
</g>
<g>
</g>
<g>
</g>
<g>
</g>
<g>
</g>
<g>
</g>
</svg>
